<svg width="165" height="46" viewBox="0 0 165 46" fill="none" xmlns="http://www.w3.org/2000/svg">
<path d="M55.96 9.02C55.2667 9.02 54.68 8.78 54.2 8.3C53.72 7.82 53.48 7.23333 53.48 6.54C53.48 5.84667 53.72 5.26 54.2 4.78C54.68 4.3 55.2667 4.06 55.96 4.06C56.6267 4.06 57.1867 4.3 57.64 4.78C58.12 5.26 58.36 5.84667 58.36 6.54C58.36 7.23333 58.12 7.82 57.64 8.3C57.1867 8.78 56.6267 9.02 55.96 9.02ZM57.72 12.58V34.5H54.08V12.58H57.72ZM72.9638 12.22C74.8571 12.22 76.5104 12.6333 77.9238 13.46C79.3638 14.2867 80.4304 15.3267 81.1238 16.58V12.58H84.8038V34.98C84.8038 36.98 84.3771 38.7533 83.5238 40.3C82.6704 41.8733 81.4438 43.1 79.8438 43.98C78.2704 44.86 76.4304 45.3 74.3238 45.3C71.4438 45.3 69.0438 44.62 67.1238 43.26C65.2038 41.9 64.0704 40.0467 63.7238 37.7H67.3238C67.7238 39.0333 68.5504 40.1 69.8038 40.9C71.0571 41.7267 72.5638 42.14 74.3238 42.14C76.3238 42.14 77.9504 41.5133 79.2038 40.26C80.4838 39.0067 81.1238 37.2467 81.1238 34.98V30.38C80.4038 31.66 79.3371 32.7267 77.9238 33.58C76.5104 34.4333 74.8571 34.86 72.9638 34.86C71.0171 34.86 69.2438 34.38 67.6438 33.42C66.0704 32.46 64.8304 31.1133 63.9238 29.38C63.0171 27.6467 62.5638 25.6733 62.5638 23.46C62.5638 21.22 63.0171 19.26 63.9238 17.58C64.8304 15.8733 66.0704 14.5533 67.6438 13.62C69.2438 12.6867 71.0171 12.22 72.9638 12.22ZM81.1238 23.5C81.1238 21.8467 80.7904 20.4067 80.1238 19.18C79.4571 17.9533 78.5504 17.02 77.4038 16.38C76.2838 15.7133 75.0438 15.38 73.6838 15.38C72.3238 15.38 71.0838 15.7 69.9638 16.34C68.8438 16.98 67.9504 17.9133 67.2838 19.14C66.6171 20.3667 66.2838 21.8067 66.2838 23.46C66.2838 25.14 66.6171 26.6067 67.2838 27.86C67.9504 29.0867 68.8438 30.0333 69.9638 30.7C71.0838 31.34 72.3238 31.66 73.6838 31.66C75.0438 31.66 76.2838 31.34 77.4038 30.7C78.5504 30.0333 79.4571 29.0867 80.1238 27.86C80.7904 26.6067 81.1238 25.1533 81.1238 23.5ZM101.635 12.18C104.302 12.18 106.462 12.9933 108.115 14.62C109.768 16.22 110.595 18.54 110.595 21.58V34.5H106.995V22.1C106.995 19.9133 106.448 18.2467 105.355 17.1C104.262 15.9267 102.768 15.34 100.875 15.34C98.955 15.34 97.4217 15.94 96.275 17.14C95.155 18.34 94.595 20.0867 94.595 22.38V34.5H90.955V12.58H94.595V15.7C95.315 14.58 96.2883 13.7133 97.515 13.1C98.7683 12.4867 100.142 12.18 101.635 12.18ZM118.421 9.02C117.728 9.02 117.141 8.78 116.661 8.3C116.181 7.82 115.941 7.23333 115.941 6.54C115.941 5.84667 116.181 5.26 116.661 4.78C117.141 4.3 117.728 4.06 118.421 4.06C119.088 4.06 119.648 4.3 120.101 4.78C120.581 5.26 120.821 5.84667 120.821 6.54C120.821 7.23333 120.581 7.82 120.101 8.3C119.648 8.78 119.088 9.02 118.421 9.02ZM120.181 12.58V34.5H116.541V12.58H120.181ZM130.825 15.58V28.5C130.825 29.5667 131.051 30.3267 131.505 30.78C131.958 31.2067 132.745 31.42 133.865 31.42H136.545V34.5H133.265C131.238 34.5 129.718 34.0333 128.705 33.1C127.691 32.1667 127.185 30.6333 127.185 28.5V15.58H124.345V12.58H127.185V7.06H130.825V12.58H136.545V15.58H130.825ZM160.955 22.7C160.955 23.3933 160.915 24.1267 160.835 24.9H143.315C143.448 27.06 144.182 28.7533 145.515 29.98C146.875 31.18 148.515 31.78 150.435 31.78C152.008 31.78 153.315 31.42 154.355 30.7C155.422 29.9533 156.168 28.9667 156.595 27.74H160.515C159.928 29.8467 158.755 31.5667 156.995 32.9C155.235 34.2067 153.048 34.86 150.435 34.86C148.355 34.86 146.488 34.3933 144.835 33.46C143.208 32.5267 141.928 31.2067 140.995 29.5C140.062 27.7667 139.595 25.7667 139.595 23.5C139.595 21.2333 140.048 19.2467 140.955 17.54C141.862 15.8333 143.128 14.5267 144.755 13.62C146.408 12.6867 148.302 12.22 150.435 12.22C152.515 12.22 154.355 12.6733 155.955 13.58C157.555 14.4867 158.782 15.74 159.635 17.34C160.515 18.9133 160.955 20.7 160.955 22.7ZM157.195 21.94C157.195 20.5533 156.888 19.3667 156.275 18.38C155.662 17.3667 154.822 16.6067 153.755 16.1C152.715 15.5667 151.555 15.3 150.275 15.3C148.435 15.3 146.862 15.8867 145.555 17.06C144.275 18.2333 143.542 19.86 143.355 21.94H157.195Z" fill="#3D5A80"/>
<rect width="43" height="43" rx="5" fill="#3D5A80"/>
<path d="M18.1406 34.4008V27.0435V23.1442C18.1406 20.9876 19.4515 19.0474 21.4523 18.2427C21.6115 18.1787 21.7918 18.1959 21.9359 18.2889L21.9739 18.3134C23.731 19.4471 24.7925 21.3953 24.7925 23.4864V34.4008H18.1406Z" stroke="#EE6C4D" stroke-width="1.5"/>
<mask id="path-4-inside-1" fill="white">
<path fill-rule="evenodd" clip-rule="evenodd" d="M22.4797 15.9826C22.7079 16.5755 23.4198 16.8284 23.8376 16.3499C24.4677 15.6282 24.8594 14.6175 24.8594 13.4986C24.8594 11.3059 23.3553 8.73438 21.5 8.73438C19.6447 8.73438 18.1406 11.3059 18.1406 13.4986C18.1406 14.6176 18.5323 15.6284 19.1625 16.3501C19.5804 16.8286 20.2923 16.5756 20.5205 15.9827V15.9827C20.8657 15.0859 22.1345 15.0858 22.4797 15.9826V15.9826Z"/>
</mask>
<path d="M23.3594 13.4986C23.3594 14.2721 23.088 14.9278 22.7077 15.3633L24.9675 17.3365C25.8475 16.3287 26.3594 14.9628 26.3594 13.4986H23.3594ZM21.5 10.2344C21.7048 10.2344 22.1464 10.4009 22.6252 11.1231C23.0788 11.8073 23.3594 12.7122 23.3594 13.4986H26.3594C26.3594 12.0923 25.8879 10.6151 25.1256 9.46538C24.3886 8.35366 23.1505 7.23438 21.5 7.23438V10.2344ZM19.6406 13.4986C19.6406 12.7122 19.9212 11.8073 20.3748 11.1231C20.8536 10.4009 21.2952 10.2344 21.5 10.2344V7.23438C19.8495 7.23438 18.6114 8.35366 17.8744 9.46538C17.1121 10.6151 16.6406 12.0923 16.6406 13.4986H19.6406ZM20.2924 15.3634C19.912 14.9279 19.6406 14.2721 19.6406 13.4986H16.6406C16.6406 14.963 17.1526 16.3289 18.0327 17.3367L20.2924 15.3634ZM21.9204 16.5215C21.7724 16.906 21.228 16.9064 21.0798 16.5214L23.8796 15.4438C23.041 13.2651 19.9589 13.2657 19.1206 15.4439L21.9204 16.5215ZM18.0327 17.3367C18.6609 18.0562 19.5699 18.2368 20.3433 18.005C21.068 17.7878 21.6477 17.2299 21.9204 16.5215L19.1206 15.4439C19.165 15.3283 19.2747 15.1934 19.4819 15.1313C19.5922 15.0983 19.7403 15.0847 19.9042 15.1283C20.0751 15.1737 20.208 15.2669 20.2924 15.3634L18.0327 17.3367ZM22.7077 15.3633C22.792 15.2668 22.925 15.1736 23.0958 15.1281C23.2597 15.0845 23.4078 15.0981 23.5181 15.1312C23.7254 15.1933 23.8351 15.3282 23.8796 15.4438L21.0798 16.5214C21.3525 17.2298 21.9323 17.7877 22.657 18.0049C23.4304 18.2367 24.3393 18.0559 24.9675 17.3365L22.7077 15.3633Z" fill="#EE6C4D" mask="url(#path-4-inside-1)"/>
</svg>
